<?xml version="1.0" encoding="utf-8"?>
<!-- Generator: Adobe Illustrator 27.3.1, SVG Export Plug-In . SVG Version: 6.00 Build 0)  -->
<svg version="1.1"
	 id="Layer_1" xmlns:dc="http://purl.org/dc/elements/1.1/" xmlns:cc="http://web.resource.org/cc/" xmlns:rdf="http://www.w3.org/1999/02/22-rdf-syntax-ns#" xmlns:svg="http://www.w3.org/2000/svg" xmlns:ns1="http://sozi.baierouge.fr" xmlns:sodipodi="http://sodipodi.sourceforge.net/DTD/sodipodi-0.dtd" xmlns:inkscape="http://www.inkscape.org/namespaces/inkscape"
	 xmlns="http://www.w3.org/2000/svg" xmlns:xlink="http://www.w3.org/1999/xlink" x="0px" y="0px" viewBox="0 0 2.8 8.8"
	 style="enable-background:new 0 0 2.8 8.8;" xml:space="preserve">
<style type="text/css">
	.st0{fill-rule:evenodd;clip-rule:evenodd;fill:#7F553D;}
</style>
<g id="Layer_x0020_1">
	<path class="st0" d="M0.2,2.3h2.3c0.1,0,0.1-0.1,0.1-0.1C2.7,2.1,2.6,2,2.5,2H0.2C0.2,2,0.1,2.1,0.1,2.1C0.1,2.2,0.2,2.3,0.2,2.3z
		 M0.2,8h2.3c0.1,0,0.1-0.1,0.1-0.1c0-0.1-0.1-0.1-0.1-0.1H0.2c-0.1,0-0.1,0.1-0.1,0.1C0.1,7.9,0.2,8,0.2,8z M1.4,0.1
		c0.7,0,1.2,0.5,1.2,1.2c0,0.2-0.1,0.4-0.2,0.6h-2C0.2,1.7,0.2,1.5,0.2,1.3C0.2,0.6,0.7,0.1,1.4,0.1L1.4,0.1z M2.4,8.1
		c-0.2,0.2-0.6,0.4-1,0.4c-0.4,0-0.8-0.1-1-0.4H2.4z M2.5,2.4v5.3h0c0.1,0,0.2,0.1,0.2,0.2S2.7,8.1,2.5,8.1h0
		C2.4,8.2,2.3,8.3,2.2,8.3C2.1,8.4,2,8.4,1.9,8.5c-0.1,0-0.2,0.1-0.3,0.1l0,0c0,0,0,0.1,0,0.1c0,0,0,0.1-0.1,0.1c0,0-0.1,0-0.1,0
		c0,0-0.1,0-0.1,0c0,0-0.1,0-0.1-0.1c0,0-0.1-0.1-0.1-0.2l0,0l0,0c-0.1,0-0.2,0-0.3-0.1c-0.1,0-0.2-0.1-0.3-0.1
		C0.4,8.2,0.3,8.2,0.2,8.1h0C0.1,8.1,0,8,0,7.9s0.1-0.2,0.2-0.2h0V2.4h0C0.1,2.4,0,2.2,0,2.1s0.1-0.2,0.2-0.2h0
		C0.1,1.7,0.1,1.5,0.1,1.3c0-0.2,0.1-0.5,0.2-0.7c0.1-0.2,0.3-0.3,0.4-0.4C0.9,0.1,1.1,0,1.4,0c0.3,0,0.5,0.1,0.7,0.2
		c0.2,0.1,0.3,0.3,0.4,0.5c0.1,0.2,0.1,0.4,0.1,0.6c0,0.1,0,0.2,0,0.4c0,0.1-0.1,0.2-0.1,0.3h0c0.1,0,0.2,0.1,0.2,0.2
		S2.7,2.4,2.5,2.4C2.5,2.4,2.5,2.4,2.5,2.4z M1.7,7.5l0.7-0.3V6.5l-2,0.9v0.2L1.7,7.5L1.7,7.5z M0.4,6.2l2-0.9V4.5l-2,0.9
		C0.4,5.4,0.4,6.2,0.4,6.2z M0.4,4.3l2-0.9V2.5l-2,0.9C0.4,3.4,0.4,4.3,0.4,4.3z M1.5,8.5C1.5,8.5,1.5,8.5,1.5,8.5
		c0,0.1-0.1,0.2-0.1,0.2c-0.1,0-0.2-0.1-0.2-0.2c0,0,0,0,0,0c0,0,0.1,0,0.1,0C1.4,8.5,1.5,8.5,1.5,8.5z M1.3,0.3
		c-0.6,0.1-1,0.8-0.8,1.5C0.6,1.5,0.7,1.4,1,1.4C0.8,0.9,0.9,0.5,1.3,0.3L1.3,0.3z"/>
</g>
</svg>
