<?xml version="1.0" encoding="UTF-8"?>
<svg id="Layer_1" data-name="Layer 1" xmlns="http://www.w3.org/2000/svg" xmlns:xlink="http://www.w3.org/1999/xlink" viewBox="0 0 1008 612">
  <defs>
    <style>
      .cls-1 {
        fill: #fff;
      }

      .cls-2 {
        clip-path: url(#clippath);
      }

      .cls-3 {
        fill: none;
      }
    </style>
    <clipPath id="clippath">
      <rect class="cls-3" x="79.16" y="28" width="497.5" height="464" transform="translate(28.11 551.96) rotate(-82.65)"/>
    </clipPath>
  </defs>
  <g id="Layer_2" data-name="Layer 2">
    <g>
      <path class="cls-1" d="m390.94,323.57v-1.98l.53-.76c4.77-1.78,8.62-3.43,11.57-4.95,0-13.26-.15-20.98-.46-23.16,5.22-1.83,9.51-3.78,12.86-5.87l1.68-1.64c-.51,3.2-.97,15.66-1.68,31.05,2.54.05,5.28.08,8.22.08,5.99,0,10.27-.15,12.86-.46l.53.53-1.45,6.4-.61.69c-2.59-.05-5.45-.08-8.6-.08-2.84,0-6.49.03-10.96.08l-.46,31.01c0,7.16.16,11.85.49,14.06.33,2.21,1.24,3.94,2.74,5.18,1.5,1.25,3.72,1.87,6.66,1.87,3.4,0,11.48-1.04,14.37-2.82l-3.11,2.9c-1.22.87-4.14,3.4-8.75,7.62-2.64,1.22-5.33,1.83-8.07,1.83-11.41,0-17.12-5.54-17.12-16.61,0-4.06.1-7.52.3-10.36.05-.86.08-1.75.08-2.67v-31.62h-3.12c-2.28,0-4.9.1-7.84.3l-.68-.61Z"/>
      <path class="cls-1" d="m436.12,349.49c0-6.04,1.24-11.87,3.73-17.49,2.48-5.61,6.81-10.46,12.97-14.55,6.16-4.09,13.48-6.13,21.95-6.13,10.65,0,19.33,3.37,26.02,10.1,6.7,6.73,10.04,15.38,10.04,25.94,0,11.63-3.84,21.21-11.53,28.73-7.69,7.52-16.96,11.28-27.81,11.28-7.1,0-13.44-1.92-19.02-5.75-5.58-3.83-9.7-8.52-12.36-14.06-2.66-5.54-4-11.56-4-18.06Zm14.38-5.26c0,7.11.91,13.48,2.74,19.09,1.83,5.61,4.72,10.12,8.67,13.53,3.96,3.4,8.47,5.1,13.55,5.1,5.98,0,10.93-2.37,14.84-7.12,3.91-4.75,5.86-11.9,5.86-21.45,0-10.82-2.12-19.68-6.35-26.59-4.24-6.91-10.34-10.36-18.3-10.36-6.6,0-11.74,2.39-15.45,7.16-3.7,4.78-5.55,11.66-5.55,20.65Z"/>
      <path class="cls-1" d="m509.01,318.1l.69-.61c9.64-1.17,17.81-3.07,24.5-5.71l1.37.99c-.56,6.66-.84,15.98-.84,27.96v14.02l.23,24.31c0,8.38-.69,16.13-2.05,23.24-1.37,7.11-4.44,13.19-9.21,18.25-4.77,5.05-10.27,7.58-16.51,7.58-.35,0-.89-.03-1.6-.08l-.76-4.34.69-.99c1.12.1,2,.15,2.66.15,1.67,0,3.32-.47,4.95-1.41,1.62-.94,3.09-2.4,4.41-4.38,1.32-1.98,2.28-4.43,2.89-7.35.61-2.92,1.03-7.49,1.25-13.72.23-6.22.34-10.38.34-12.46v-44.35c0-2.03-.09-4.79-.27-8.27-.18-3.48-.34-5.65-.49-6.52-.15-.86-.57-1.47-1.26-1.83-.68-.35-1.97-.53-3.84-.53l-6.47-.08-.69-.61v-3.28Zm16.08-30.32c2.33,0,4.34.83,6.01,2.48,1.67,1.65,2.51,3.69,2.51,6.13s-.84,4.34-2.51,6.02c-1.68,1.68-3.68,2.51-6.01,2.51s-4.41-.84-6.09-2.51-2.51-3.68-2.51-6.02.84-4.42,2.51-6.1c1.67-1.68,3.7-2.51,6.09-2.51Z"/>
      <path class="cls-1" d="m548.92,332.73l-2.97-.76-.61-.76v-9.45c9.03-6.71,17.8-10.06,26.33-10.06,5.83,0,10.68,1.09,14.53,3.28,3.85,2.18,6.65,4.91,8.37,8.19,1.72,3.28,2.59,7.1,2.59,11.47l-.38,15.31v22.71c0,3.1.22,4.98.65,5.64.43.66.92,1.11,1.48,1.33.56.23,1.6.42,3.12.57l4.34.38.61.69v3.05l-.61.61c-3.7-.3-7.15-.46-10.35-.46s-6.7.15-10.96.46l-1.14-1.07.3-12.27-16.59,12.95c-2.79,1.17-5.83,1.75-9.13,1.75-4.06,0-7.55-.74-10.46-2.21-2.92-1.47-5.15-3.53-6.7-6.17-1.55-2.64-2.32-5.84-2.32-9.6,0-7.47,2.33-13.3,7-17.49,4.67-4.19,17.4-7.76,38.2-10.7,0-7.52-1.67-12.81-5.02-15.89-3.35-3.07-7.84-4.61-13.47-4.61-2.94,0-5.62.43-8.03,1.3s-3.79,1.56-4.15,2.1c-.36.53-1.73,3.64-4.11,9.33l-.53.38Zm35.31,12.04c-14.2,2.39-23.06,4.95-26.56,7.7-3.5,2.74-5.25,6.99-5.25,12.73,0,7.92,3.93,11.89,11.79,11.89,6.75,0,13.42-3.91,20.01-11.73v-20.57Z"/>
      <path class="cls-1" d="m635.44,311.77l1.45.99c-.3,3.4-.51,7.87-.61,13.41,4.06-3.35,7.91-6.76,11.57-10.21,1.06-.96,2.07-1.68,3.01-2.13.94-.46,2.5-.94,4.68-1.45,2.18-.51,4.41-.76,6.7-.76,3.85,0,7.6.79,11.22,2.36,3.63,1.58,6.37,3.44,8.22,5.6,1.85,2.16,3.13,4.71,3.84,7.66.71,2.95,1.07,6.58,1.07,10.9v13.41c0,.87.13,7.19.38,18.97.1,4.83.63,7.7,1.6,8.61.96.91,4.11,1.37,9.44,1.37l.61.61v3.28l-.61.61c-6.44-.41-10.81-.61-13.09-.61-1.32,0-5.02.2-11.11.61l-.91-.84c.66-6.6.99-15.21.99-25.83v-9.98c0-5.99-.14-10.31-.42-12.95-.28-2.64-1.13-5.04-2.55-7.2-1.42-2.16-3.32-3.84-5.71-5.03-2.39-1.19-5.23-1.79-8.52-1.79-2.64,0-4.9.27-6.77.8-1.88.53-3.98,1.63-6.32,3.28-2.33,1.65-4.06,3.2-5.17,4.65-1.12,1.45-1.79,2.79-2.02,4.04-.23,1.24-.34,3.9-.34,7.96v13.26c0,1.12.1,4.71.3,10.78.2,6.07.42,9.61.65,10.63.23,1.02.57,1.75,1.03,2.21.46.46,1.01.75,1.67.88.66.13,3.4.34,8.22.65l.68.61v3.2l-.61.69c-6.34-.41-12.45-.61-18.34-.61s-11.92.2-18.26.61l-.68-.69v-3.2l.68-.61c4.92-.3,7.7-.53,8.33-.69s1.19-.47,1.67-.95c.48-.48.81-1.22.99-2.21.18-.99.38-4.27.61-9.83.23-5.56.34-9.76.34-12.61v-15.01c0-2.03-.1-4.8-.3-8.31-.2-3.5-.37-5.66-.49-6.48-.13-.81-.52-1.41-1.18-1.79-.66-.38-1.98-.57-3.96-.57l-6.39-.08-.69-.61v-3.28l.61-.61c9.69-1.17,17.86-3.07,24.5-5.71Z"/>
      <path class="cls-1" d="m691.93,348.48c0-6.04,1.24-11.87,3.73-17.49,2.48-5.61,6.81-10.46,12.97-14.55,6.16-4.09,13.48-6.13,21.95-6.13,10.65,0,19.33,3.37,26.02,10.1,6.7,6.73,10.04,15.38,10.04,25.94,0,11.63-3.84,21.21-11.53,28.73-7.69,7.52-16.96,11.28-27.81,11.28-7.1,0-13.44-1.92-19.02-5.75-5.58-3.83-9.7-8.52-12.36-14.06-2.66-5.54-4-11.56-4-18.06Zm14.38-5.26c0,7.11.91,13.48,2.74,19.09,1.83,5.61,4.72,10.12,8.67,13.53,3.96,3.4,8.47,5.1,13.55,5.1,5.98,0,10.93-2.37,14.84-7.12,3.91-4.75,5.86-11.9,5.86-21.45,0-10.82-2.12-19.68-6.35-26.59-4.24-6.91-10.34-10.36-18.3-10.36-6.6,0-11.74,2.39-15.45,7.16-3.7,4.78-5.55,11.66-5.55,20.65Z"/>
      <path class="cls-1" d="m794.27,385.76l-4.72-11.96-5.63-13.03-15.6-36.35c-1.02-2.39-1.92-3.96-2.7-4.72-.79-.76-1.59-1.22-2.4-1.37-.81-.15-2.43-.28-4.87-.38l-.61-.61v-3.28l.68-.69c7.1.36,12.73.53,16.89.53,5.88,0,11.79-.18,17.73-.53l.61.61v3.35l-.61.61c-5.28.15-8.35.52-9.21,1.11-.86.58-1.29,1.33-1.29,2.25,0,1.52,1.01,4.8,3.04,9.83l9.28,23.16,7.3,17.3,7.61-17.3,6.32-15.7c2.43-5.94,4.01-10.16,4.72-12.65.71-2.49,1.07-4.14,1.07-4.95,0-.96-.56-1.66-1.68-2.1-1.12-.43-3.93-.75-8.45-.95l-.61-.61v-3.28l.69-.69c6.29.36,11.01.53,14.15.53,2.64,0,7.15-.18,13.55-.53l.68.69v3.28l-.61.61c-2.99.25-4.98.69-5.97,1.29-.99.61-1.95,1.79-2.89,3.54-.94,1.75-3.64,7.2-8.1,16.34l-7.3,15.62c-1.22,2.64-5.61,12.98-13.16,31.01h-7.91Z"/>
      <path class="cls-1" d="m866.57,311.77l1.45.99c-.56,6.66-.84,15.11-.84,25.37v17.22c0,1.12.1,4.71.3,10.78.2,6.07.42,9.61.65,10.63.23,1.02.57,1.75,1.03,2.21.46.46,1.01.75,1.68.88.66.13,3.4.34,8.22.65l.68.61v3.2l-.61.69c-6.34-.41-12.45-.61-18.34-.61s-11.92.2-18.26.61l-.69-.69v-3.2l.69-.61c4.92-.3,7.7-.53,8.33-.69.63-.15,1.19-.47,1.67-.95s.81-1.22.99-2.21c.18-.99.38-4.27.61-9.83.23-5.56.34-9.76.34-12.61v-15.01c0-2.03-.1-4.8-.3-8.31-.2-3.5-.37-5.66-.49-6.48-.13-.81-.52-1.41-1.18-1.79-.66-.38-1.98-.57-3.96-.57l-6.39-.08-.69-.61v-3.28l.61-.61c9.69-1.17,17.86-3.07,24.5-5.71Zm-9.48-23.99c2.38,0,4.41.84,6.09,2.51,1.67,1.68,2.51,3.71,2.51,6.1s-.84,4.34-2.51,6.02-3.7,2.51-6.09,2.51-4.35-.82-6.05-2.48c-1.7-1.65-2.55-3.67-2.55-6.06s.85-4.42,2.55-6.1c1.7-1.68,3.72-2.51,6.05-2.51Z"/>
      <path class="cls-1" d="m940.25,376.38l-3.04,5.1c-6.54,3.61-13.85,5.41-21.91,5.41-11.16,0-19.78-3.33-25.87-9.98-6.09-6.65-9.13-15.24-9.13-25.75,0-4.77.52-9.03,1.56-12.76,1.04-3.73,2.36-6.82,3.96-9.26,1.6-2.44,3.36-4.37,5.29-5.79,1.93-1.42,5.19-3.4,9.78-5.94,4.59-2.54,8.05-4.2,10.39-4.99,2.33-.79,5.56-1.18,9.66-1.18,7.86,0,14.31,1.5,19.33,4.5-.96,5.74-1.7,12.14-2.21,19.2l-.12,1.62-2.01,6.04-2.36-7.73c-.2-4.27-.48-7.14-.84-8.61-.36-1.47-2.37-3.05-6.05-4.73-3.68-1.68-7.6-2.51-11.76-2.51s-7.86.88-11.11,2.63c-3.25,1.75-5.7,4.62-7.34,8.61-1.65,3.99-2.47,8.75-2.47,14.29,0,4.67.66,9.23,1.98,13.68,1.32,4.44,3.06,8.13,5.21,11.05,2.16,2.92,5.01,5.27,8.56,7.05,3.55,1.78,7.51,2.67,11.87,2.67,2.74,0,5.41-.35,8.03-1.07,2.61-.71,4.89-13.56,8.29-15.18l2.33,13.66Zm-5.34-95.26l-16.55,26.2-.73.28-1.63-1.05-.17-.91,8.61-24.44,8.78-2.03.73.21.96,1.75Z"/>
    </g>
    <path class="cls-1" d="m398.64,348.32c0,11.44-4.54,21.26-13.63,29.46-9.09,8.21-20.78,12.31-35.05,12.31-5.03,0-11.27-.58-18.73-1.75-6.91-1.08-15.64-.97-21.07-2.07l-1.21.76c-2.66-.04,5-19.74,5-21.82v-.12s-.01-.06-.01-.06c-.09-2.67-2.07-8.03-1.99-16.21l-4-8.31-4-8.54,17,9.35c.16,6.96.61,21.93,1.25,26.89,2.47,3.9,6.74,7.07,12.8,9.51,6.06,2.45,12.04,3.67,17.95,3.67,8.45,0,15.21-2.36,20.27-7.09,5.07-4.72,7.6-10.35,7.6-16.91,0-3.55-.92-6.65-2.75-9.26-1.84-2.61-4.61-4.76-8.32-6.46-3.7-1.69-10.34-3.71-19.91-6.03-8.22-2-13.96-3.54-17.23-4.67-3.27-1.11-6.42-3-9.45-5.65-3.03-2.65-5.35-5.9-6.94-9.76-1.6-3.86-2.39-8.11-2.39-12.74,0-11.11,4.24-19.99,12.74-26.66,8.49-6.67,19.08-10.01,31.76-10.01,5.34,0,11.16.77,17.47,2.3,6.3,1.54,11.08,3,14.35,4.42l-.2,1.94c-.64,3.31-1.84,11.89-2,25.98l2,1.04-4,7.27-1-8.31c-.32-5.05-2-8.31-3-10.39-.91-1.89-2.17-4.54-4.48-6.9-2.31-2.37-5.58-4.35-9.81-5.98-4.23-1.61-8.69-2.42-13.4-2.42s-8.95.75-12.26,2.23c-3.31,1.5-5.98,3.75-8.01,6.78-2.04,3.03-3.06,6.69-3.06,11,0,3.15.62,5.96,1.86,8.46,1.23,2.48,3.13,4.49,5.68,6.03,2.55,1.53,5.22,2.63,8.02,3.29l13.04,3.48c11.16,2.82,19.16,5.26,23.98,7.33,4.83,2.08,8.56,5.21,11.19,9.39,2.63,4.19,3.94,9.26,3.94,15.22Z"/>
    <g id="g13299">
      <g class="cls-2">
        <g id="g13301">
          <path id="path13307" class="cls-1" d="m503.08,217.63c0-.21,0-.36-.01-.54-.03-1.42-.23-3.04-.74-4.71-.49-1.68-1.32-3.41-2.48-5-.58-.8-1.25-1.56-1.99-2.28-.74-.72-1.57-1.36-2.45-1.95-.89-.58-1.83-1.1-2.82-1.56-.99-.44-2.03-.81-3.1-1.1-1.07-.27-2.17-.5-3.29-.62-1.12-.11-2.24-.18-3.37-.14-.57,0-1.13.06-1.69.1-.56.07-1.12.11-1.69.21l-.85.14-.8.16-.4.08-.43.11-.81.21-.81.21-.79.27c-.52.19-1.06.34-1.56.58-.51.22-1.01.43-1.52.65-.49.25-.98.49-1.46.73-1.91,1.01-3.66,2.2-5.2,3.47-1.53,1.29-2.89,2.62-4,3.98-.3.32-.55.68-.8,1.01-.25.34-.51.66-.74.99-.22.34-.43.66-.64.98-.1.16-.2.31-.3.47-.1.16-.18.32-.27.47-.34.63-.69,1.19-.93,1.77-.25.56-.51,1.06-.68,1.55-.18.48-.34.91-.47,1.28-.11.38-.2.7-.27.96-.15.52-.22.8-.22.8,0,0,.12-.26.34-.76.11-.25.24-.55.4-.91.18-.34.39-.74.62-1.18.21-.45.53-.91.83-1.42.3-.52.69-1.04,1.08-1.61.1-.14.2-.28.3-.43.11-.14.22-.28.34-.42.23-.28.46-.58.7-.88.25-.29.52-.58.78-.88.27-.3.53-.61.84-.9.3-.29.6-.59.91-.9.31-.3.65-.58.99-.87.17-.15.34-.3.51-.45.18-.14.36-.28.54-.42.36-.28.72-.58,1.1-.86,1.52-1.11,3.23-2.11,5.04-3.01,1.81-.91,3.79-1.56,5.8-2.1l.76-.19.36-.09.4-.08.8-.15.76-.11c.5-.09,1.03-.12,1.55-.18.52-.03,1.04-.08,1.56-.07,2.08-.06,4.15.16,6.11.63.98.25,1.93.56,2.85.92.91.38,1.78.82,2.61,1.31.82.5,1.57,1.07,2.29,1.66.7.61,1.35,1.25,1.92,1.94.56.7,1.07,1.4,1.49,2.15.23.36.4.74.6,1.11.17.38.35.74.49,1.12.58,1.5.92,2.97,1.09,4.31.02.16.04.32.06.48,0,.17.02.33.03.5.02.32.04.63.06.93,0,.59,0,1.13,0,1.62-.04.5-.08.94-.11,1.32-.02.39-.1.71-.13.98-.08.53-.12.82-.12.82,0,0,.08-.28.24-.8.07-.26.19-.58.27-.96.08-.39.18-.83.29-1.33.06-.5.15-1.07.21-1.69.01-.3.03-.62.05-.94,0-.16.01-.33.02-.5m-22.05,25.98c-13.64,2.6-25.5-5.39-26.49-17.84-.99-12.45,9.27-24.65,22.91-27.25,13.64-2.6,25.5,5.39,26.49,17.84.99,12.45-9.27,24.65-22.91,27.25m8.22-55.81c-2.97.4-6,1.29-9.03,2.52-1.24-1.85-1.92-4.08-1.04-6.42-3.89-1.27-5.85,4.8-5.85,6.44,0,.58.21,1.76.49,3.06-15.46,8.51-30,23.7-36.41,27.17-8.54,4.61-37.28,7.26-37.28,7.26-1.34-.4-9.05-8.87-12.16-12.66-.25,1.38-.48,2.75-.7,4.09-.84,5.16-1.5,9.96-2.27,13.92h0s-1.66,1.21-4.61,3.37c-.31.22-.63.46-.96.7-.09.07-.18.13-.27.2-6.15,4.49-16.69,12.18-29.43,21.49l42.9-16.96c52.7-17.05,54.43-6.01,66.22.86,12.45,7.26,27.76,15.46,44.52-3.4,16.76-18.86.94-47.6-14.1-51.64m-146.03,53.94l.46.58-103.08,92.15.05-.04-.05.04,102.62-92.73Zm-99.42,69.2c-1.93-1.64-3.87-3.29-5.8-4.93-1.54-1.31-3.07-2.62-4.6-3.94-1.65-1.43-3.29-2.88-4.9-4.35-.17-.15-.33-.3-.5-.45-1.58-1.44-3.15-2.89-4.69-4.36-2.45-2.34-4.84-4.74-7.14-7.19-3.07-3.27-5.98-6.63-8.67-10.1-.67-.87-1.33-1.74-1.98-2.62-1.93-2.64-3.75-5.33-5.43-8.06-1.4-2.27-2.7-4.57-3.9-6.88-1.21-2.31-2.33-4.64-3.34-6.97-.4-.94-.81-1.87-1.17-2.79-.18-.46-.37-.92-.55-1.38-.06-.16-.12-.31-.18-.47-.12-.31-.24-.63-.35-.94-.68-1.87-1.29-3.74-1.79-5.61-1.01-3.74-1.65-7.49-1.82-11.15-.16-3.66.14-7.22.89-10.51.74-3.29,1.95-6.31,3.41-8.93,1.47-2.62,3.22-4.83,5-6.66,1.79-1.83,3.64-3.28,5.39-4.41,2.49-1.61,4.76-2.58,6.63-3.2.77-.25,1.48-.45,2.09-.6,1.06-.25,1.88-.36,2.43-.42.55-.06.84-.08.84-.08,0,0-.28.03-.84.11-.55.08-1.37.23-2.41.52-2.08.58-5.12,1.73-8.5,4.09-1.69,1.17-3.46,2.65-5.15,4.49-1.25,1.36-2.47,2.93-3.56,4.69-.38.62-.76,1.26-1.11,1.93-1.35,2.57-2.44,5.5-3.08,8.68-.12.6-.22,1.2-.31,1.82-.18,1.23-.3,2.48-.35,3.76-.06,1.49-.05,3.01.06,4.55.24,3.52.92,7.13,1.98,10.74.18.6.38,1.2.57,1.81.2.6.4,1.2.62,1.81.22.6.43,1.2.66,1.8.18.45.36.91.54,1.34.19.45.39.91.58,1.36.17.41.35.81.53,1.21.23.5.45,1,.68,1.5,1.68,3.6,3.56,7.23,5.71,10.77,1.86,3.08,3.9,6.11,6.09,9.08.34.46.67.92,1.02,1.37,1.3,1.7,2.64,3.38,4.05,5.04.23.28.47.55.7.83.24.27.47.55.71.83.24.27.48.55.71.82.45.5.9,1.01,1.35,1.51.28.31.56.62.84.92,2.97,3.23,6.11,6.36,9.38,9.42,2.1,1.96,4.26,3.89,6.44,5.8,2.9,2.55,5.85,5.08,8.83,7.59,1.74,1.47,3.48,2.93,5.23,4.4,1.16.98,2.32,1.97,3.48,2.96,2.32,1.98,4.62,3.98,6.88,6.03l.39.35c-.76.72-1.5,1.44-2.24,2.14-3.38-3.09-6.87-6.09-10.38-9.07m-26.85-115.51c.65-.06,1.26-.09,1.79-.1.39,0,.73,0,1.06,0,.65.02,1.18.07,1.58.11.3.03.52.07.67.09.15.02.23.03.23.03,0,0-.08,0-.23-.02-.03,0-.07,0-.1-.01-.14-.02-.33-.04-.57-.05-.2-.01-.43-.03-.69-.03-.52-.02-1.17-.02-1.94.03-1.89.11-4.56.51-7.68,1.65-.66.24-1.34.51-2.05.82-2,.9-4.13,2.13-6.21,3.81-2.07,1.69-4.08,3.84-5.7,6.5-1.63,2.65-2.81,5.81-3.35,9.25-.35,2.21-.43,4.53-.29,6.89.08,1.31.23,2.64.45,3.97.54,3.32,1.51,6.67,2.78,10,.16.42.32.83.49,1.25.37.92.8,1.88,1.2,2.83.14.31.29.63.43.94.29.62.57,1.25.86,1.88.35.71.71,1.43,1.07,2.15.59,1.16,1.19,2.33,1.83,3.49,1.54,2.82,3.24,5.6,5.08,8.36,2.05,3.06,4.28,6.07,6.66,9.02,1.19,1.48,2.41,2.94,3.68,4.38,6.05,6.96,12.94,13.53,20.2,19.91,1.21,1.07,2.44,2.12,3.66,3.18,6.13,5.3,12.43,10.53,18.62,15.97.41.36.83.73,1.24,1.09-.5.48-.99.95-1.49,1.43-.25.24-.5.48-.74.71h0c-.31-.28-.62-.56-.94-.84-3.67-3.26-7.41-6.45-11.14-9.63-3.73-3.19-7.44-6.37-11.07-9.62-4.23-3.79-8.33-7.66-12.23-11.65-2.79-2.85-5.47-5.75-8-8.72-3.8-4.46-7.25-9.09-10.3-13.83-1.83-2.84-3.51-5.72-5.04-8.61-.52-.96-.99-1.94-1.48-2.9-.48-.96-.91-1.95-1.37-2.91-.14-.33-.28-.65-.42-.97-.28-.65-.57-1.31-.84-1.95-.15-.39-.31-.77-.46-1.15-.23-.57-.46-1.15-.69-1.75-.18-.49-.36-.97-.54-1.46-1.21-3.41-2.11-6.84-2.59-10.25-.26-1.79-.39-3.56-.4-5.32,0-1.43.07-2.85.24-4.23.08-.62.16-1.22.27-1.83.66-3.61,2-6.91,3.77-9.64.21-.32.42-.64.64-.94,1.24-1.74,2.63-3.22,4.07-4.48.26-.23.52-.45.78-.66.21-.17.41-.33.62-.49,2.19-1.66,4.41-2.84,6.47-3.68,2.06-.85,3.97-1.36,5.64-1.67.9-.17,1.72-.27,2.47-.34m7.27,2.28c.76.06,1.44.14,2.05.24,1.19.19,2.09.43,2.69.61.01,0,.03,0,.04.01.01,0,.02,0,.03.01.29.08.51.16.65.21.15.05.23.08.23.08h0s-.02,0-.05-.01c-.04-.01-.09-.03-.19-.06-.15-.04-.38-.12-.69-.19-.61-.16-1.53-.36-2.75-.5-2.43-.28-6.1-.33-10.59.85-.44.12-.88.25-1.33.4-1.13.36-2.3.82-3.47,1.4-.75.37-1.51.78-2.26,1.25-2.38,1.51-4.72,3.62-6.43,6.45-.43.7-.81,1.45-1.15,2.23-1,2.34-1.57,5-1.67,7.76-.01.37-.01.74-.01,1.11.01,2.42.32,4.91.88,7.41.22.96.47,1.93.75,2.89.57,1.92,1.27,3.87,2.05,5.77.42.97.83,1.96,1.27,2.93.45.96.87,1.93,1.37,2.89,1.91,3.87,4.08,7.76,6.58,11.56,4.98,7.62,11.18,14.93,18.12,21.9,2.32,2.32,4.73,4.6,7.2,6.85,1.24,1.13,2.48,2.25,3.75,3.36,1.9,1.67,3.83,3.33,5.79,4.98,1.47,1.24,2.95,2.48,4.44,3.71.5.41.98.83,1.48,1.24,4.81,3.99,9.72,7.97,14.58,12.09-.37.36-.74.71-1.12,1.07-.37.36-.75.71-1.12,1.07h0c-2.06-1.75-4.13-3.48-6.2-5.21-2.67-2.22-5.33-4.42-7.97-6.63-7.98-6.63-15.7-13.4-22.68-20.53-6.99-7.12-13.16-14.69-18.11-22.55-2.49-3.92-4.66-7.92-6.51-11.92-.1-.21-.19-.42-.29-.63-.36-.79-.7-1.59-1.05-2.38-.43-1-.81-1.99-1.21-2.97-.78-2.02-1.45-4.02-1.99-6.03-.96-3.52-1.52-7.07-1.48-10.53,0-.49.02-.99.05-1.48.13-1.95.46-3.86,1.02-5.65.19-.62.42-1.22.66-1.81.11-.26.21-.53.33-.78.09-.2.2-.39.3-.58.31-.61.64-1.21,1-1.78.76-1.19,1.62-2.24,2.55-3.17.76-.77,1.55-1.46,2.37-2.07.68-.51,1.36-.96,2.05-1.36.75-.43,1.49-.81,2.23-1.14,1.05-.48,2.08-.86,3.08-1.17.69-.21,1.38-.4,2.04-.55,2.3-.53,4.39-.72,6.19-.74.9,0,1.73.02,2.49.08m-8.79,7.78c-.6.47-1.19.99-1.74,1.58-.55.59-1.06,1.24-1.52,1.95-.91,1.42-1.62,3.05-2.05,4.8-.45,1.75-.63,3.59-.65,5.47,0,1.88.17,3.79.49,5.71.65,3.85,1.82,7.73,3.31,11.63,2.98,7.8,7.24,15.8,12.82,23.38,1.4,1.89,2.85,3.78,4.4,5.62.76.93,1.56,1.83,2.36,2.75.81.9,1.62,1.81,2.47,2.69,1.67,1.79,3.42,3.54,5.22,5.26,1.79,1.73,3.64,3.42,5.54,5.09,2.8,2.48,5.7,4.9,8.66,7.3-.91.51-1.8,1.01-2.69,1.51-17.29-15.33-34.73-33.4-43.01-54.05-8.31-20.73.17-30.3,9.84-32.69-1.16.49-2.33,1.13-3.44,1.98m45.85,88.43c2.96,2.3,5.94,4.6,8.92,6.93.73.57,1.46,1.15,2.19,1.73-.93.89-1.86,1.78-2.77,2.66-3.78-3.16-7.76-6.48-11.8-9.95l3.46-1.37Zm34.37-13.59c-7.12,6.81-14.23,13.61-21.03,20.12-.88-.69-1.76-1.38-2.63-2.06-2.5-1.94-4.98-3.85-7.45-5.75l31.12-12.31Zm52.03-46.43c2.97-3.97,8.33-4.8,11.97-1.85,2.95,2.39,3.86,6.55,2.5,10.15-.1.28-.22.55-.35.82-.26.54-.58,1.06-.95,1.56-.74.99-1.64,1.79-2.61,2.38-2.2,1.33-4.83,1.61-7.15.74-.78-.29-1.52-.71-2.2-1.26-3.64-2.95-4.17-8.56-1.2-12.53m14.85-10.49c1.01-.85,1.99-1.72,2.97-2.6.49-.44.97-.89,1.45-1.34.49-.44.96-.9,1.44-1.36.96-.9,1.89-1.84,2.82-2.77.26-.26.51-.53.76-.8.66-.69,1.32-1.38,1.95-2.09.45-.48.89-.98,1.32-1.48.43-.5.88-.99,1.29-1.5.85-1.01,1.69-2.04,2.51-3.08l1.21-1.58,1.17-1.61c.76-1.08,1.51-2.18,2.23-3.3.72-1.12,1.4-2.26,2.06-3.41.31-.54.59-1.08.89-1.62.02-.04.05-.08.07-.13.31-.59.6-1.19.9-1.78.28-.6.58-1.2.85-1.8.26-.61.55-1.21.79-1.83.12-.31.25-.62.37-.92,0-.02.01-.04.02-.06.12-.29.23-.58.33-.88l.23-.62.11-.31.31-.94c.22-.63.39-1.27.58-1.9.17-.64.35-1.28.49-1.93.3-1.29.51-2.59.69-3.9.15-1.31.22-2.62.22-3.93v-.32s.19-.02.19-.02h.11c.45-.05.92-.17,1.38-.33.46-.16.92-.35,1.37-.56.68-.32,1.34-.68,1.99-1.07.22-.13.44-.25.65-.38.53-.33,1.05-.68,1.56-1.03,1.17-.78,2.32-1.6,3.43-2.48,1.6-1.28,3.16-2.62,4.59-4.1.72-.74,1.4-1.51,2.02-2.34.61-.83,1.2-1.72,1.48-2.73-.06.26-.14.51-.23.75-.1.24-.21.48-.33.71-.24.47-.52.91-.82,1.34-.6.86-1.27,1.66-1.97,2.42-.7.77-1.43,1.5-2.19,2.21-.47.44-.95.87-1.44,1.3-.29.25-.59.51-.88.75-.89.73-1.79,1.42-2.72,2.09-.74.54-1.49,1.06-2.26,1.55-.87.55-1.75,1.07-2.67,1.52-.46.23-.93.44-1.41.62-.4.14-.8.27-1.23.34,0,1.24-.06,2.48-.19,3.72-.15,1.2-.34,2.39-.6,3.58-.03.14-.05.27-.08.41-.14.66-.32,1.31-.48,1.96-.19.65-.36,1.3-.58,1.94l-.16.48-.16.48-.34.95c-.11.32-.23.63-.35.95-.12.31-.25.63-.37.94-.24.63-.53,1.24-.79,1.86-.28.61-.57,1.22-.86,1.83-.31.6-.61,1.2-.93,1.79-.33.59-.64,1.18-.98,1.76-.67,1.16-1.37,2.31-2.1,3.44-.39.59-.78,1.18-1.18,1.77-.36.52-.72,1.04-1.08,1.55l-1.19,1.61-1.23,1.58c-.84,1.04-1.68,2.08-2.56,3.07-.43.51-.88.99-1.33,1.49-.44.5-.89.98-1.35,1.46-.91.97-1.85,1.91-2.78,2.84-.95.92-1.9,1.84-2.88,2.73-.48.45-.98.89-1.47,1.32-.5.43-.99.87-1.49,1.3-.31.26-.62.52-.93.78-.7.58-1.4,1.17-2.11,1.73-1.02.84-2.08,1.61-3.12,2.41,0,0,.02-.01.02-.02,0,0-.02.01-.03.02,1.01-.84,2.03-1.67,3.03-2.53m51.79-77.91c-.07-.42-.15-.84-.23-1.26-.17-.84-.39-1.66-.64-2.47-.13-.4-.26-.81-.41-1.2-.14-.4-.3-.79-.46-1.18-.16-.39-.34-.77-.52-1.15-.14-.29-.29-.57-.44-.86-.04-.09-.09-.17-.13-.26-.2-.37-.41-.73-.62-1.08-.21-.36-.44-.7-.67-1.04-.23-.34-.48-.67-.73-.99-.25-.32-.52-.63-.8-.93l-.18-.19.14-.23.64-1.04.69-1c.24-.33.49-.64.73-.97.25-.32.52-.62.77-.93.53-.61,1.08-1.2,1.65-1.76.57-.56,1.16-1.1,1.78-1.61.3-.26.62-.5.93-.75.31-.25.63-.48.96-.71.32-.24.64-.46.98-.68.33-.22.66-.44,1-.64.67-.42,1.35-.81,2.04-1.19.69-.38,1.39-.72,2.09-1.06.71-.33,1.42-.64,2.14-.94l1.09-.41.69-.24.4-.14,1.1-.35,1.11-.32c.74-.2,1.49-.39,2.24-.55.75-.16,1.5-.3,2.26-.42.76-.11,1.51-.2,2.27-.25.4-.03.8-.05,1.2-.07.36-.01.71-.03,1.07-.02.76-.01,1.51.05,2.26.11,0,0-.01,0-.02,0,0,0,.01,0,.02,0-.75-.02-1.51-.01-2.26.04-.75.03-1.51.11-2.26.21-.75.1-1.5.22-2.24.36l-1.11.23-1.11.26c-.74.18-1.47.39-2.2.61l-1.09.35-1.08.38-1.07.41-1.06.44c-.71.3-1.41.61-2.1.95-.35.17-.7.36-1.04.54-.34.17-.68.34-1.01.52-.67.38-1.34.77-1.99,1.18-.33.2-.65.42-.97.64-.32.21-.64.44-.95.67-.31.23-.63.46-.93.7-.31.24-.61.48-.91.74-.6.5-1.17,1.03-1.74,1.57-.56.54-1.1,1.11-1.62,1.69-.25.3-.51.59-.76.9-.24.31-.49.62-.72.93l-.68.97-.49.78c.22.25.44.51.65.77.26.34.51.68.75,1.03.24.35.47.71.68,1.08.22.37.42.75.61,1.13.2.38.38.77.55,1.16.17.39.34.79.49,1.19.15.4.3.81.44,1.22.14.41.26.82.38,1.24.24.83.43,1.68.59,2.54.08.43.13.86.18,1.3.05.44.08.87.1,1.31.02.44.02.88,0,1.32-.02.44-.05.88-.11,1.32-.05.44-.15.87-.28,1.3-.07.21-.14.42-.23.62-.09.2-.18.4-.29.59.4-.79.57-1.66.65-2.52.05-.43.05-.87.05-1.3,0-.43-.03-.86-.07-1.29-.02-.16-.04-.32-.06-.48-.03-.27-.06-.54-.1-.8m38.21-22.53c.78.48,1.51,1.02,2.2,1.61,2.18,1.88,3.91,4.3,4.97,7.21,3.74,10.27-2.27,22.62-13.42,27.58-7.64,3.4-15.7,2.45-21.23-1.79-1.79-1.37-3.31-3.09-4.46-5.12-.13-.22-.25-.44-.37-.67-.34-.65-.64-1.33-.9-2.04-1.94-5.32-1.25-11.2,1.4-16.32.55-1.06,1.18-2.09,1.89-3.07.03-.05.07-.09.11-.14,1.75-2.38,3.96-4.49,6.56-6.17.31-.2.62-.39.93-.58.49-.29.99-.57,1.5-.82.34-.17.68-.33,1.03-.49,7-3.11,14.35-2.58,19.79.79m22.55-36.3c.47,1.47.71,3.03.85,4.59.08.78.11,1.57.13,2.36v1.19s-.04,1.19-.04,1.19l-.08,1.19-.12,1.18-.16,1.18-.19,1.18c-.15.78-.3,1.57-.49,2.34-.18.78-.4,1.55-.62,2.31-.25.76-.49,1.52-.77,2.27-.26.76-.58,1.49-.88,2.23-.33.73-.64,1.46-1,2.18-.36.72-.71,1.43-1.1,2.13-.37.71-.78,1.39-1.19,2.07-.4.69-.85,1.35-1.28,2.02-.44.66-.92,1.3-1.37,1.95l-1.34,1.75.25,1.45c.1.54.15,1.09.22,1.64.08.55.12,1.1.17,1.65.05.55.1,1.1.11,1.66.01.42.03.83.04,1.25,0,.14.01.28,0,.42v.15s-.01,1.51-.01,1.51l-.07,1.67c-.03.56-.08,1.11-.12,1.66-.04.56-.12,1.11-.17,1.66-.05.55-.14,1.1-.23,1.66-.08.55-.18,1.1-.28,1.65-.1.55-.23,1.09-.36,1.63-.12.55-.28,1.08-.43,1.62-.14.54-.35,1.06-.52,1.59-.09.26-.2.52-.31.78-.1.26-.2.52-.34.77-.13.25-.24.5-.38.75l-.07.12-.36.59h0s0,0,0,0l.4-.73c.13-.25.23-.51.34-.76.12-.25.21-.51.3-.78.09-.26.19-.52.27-.79.08-.3.17-.59.26-.89.07-.24.14-.47.19-.71.06-.25.12-.51.18-.76.07-.28.13-.57.18-.86.11-.54.21-1.08.29-1.63.09-.55.18-1.09.24-1.64.07-.55.14-1.09.18-1.64.04-.55.11-1.1.13-1.65.03-.55.07-1.1.08-1.65l.03-1.64-.03-1.64c0-.55-.05-1.09-.07-1.64,0-.17-.02-.34-.03-.51,0-.16-.02-.32-.03-.48-.02-.21-.04-.42-.06-.63-.05-.54-.09-1.09-.18-1.62-.08-.54-.13-1.08-.23-1.61l-.13-1.46.13-.04.11-.14.96-1.55.29-.47s.03-.05.05-.07c.42-.63.74-1.34,1.16-1.97.42-.67.86-1.32,1.25-2,.41-.67.81-1.35,1.18-2.04.39-.68.74-1.39,1.1-2.09.36-.7.67-1.42,1-2.14.3-.73.62-1.45.89-2.19.29-.73.53-1.48.78-2.23.22-.75.47-1.5.66-2.26.18-.65.33-1.31.47-1.97.02-.11.05-.22.07-.32l.22-1.16.19-1.16.15-1.17.11-1.17c.06-.78.1-1.56.12-2.35.01-.78.01-1.56-.03-2.35-.04-.78-.1-1.56-.21-2.33-.04-.31-.09-.62-.14-.92-.08-.46-.16-.92-.28-1.37m-91.9,147.13c.36-.26.69-.5.99-.72.75-.55,1.31-.95,1.66-1.21.28-.2.42-.31.42-.31.42-2.17.81-4.59,1.21-7.18,2.82-18.15,6.39-44.79,27.06-54.54,13.51-6.38,39.4,1.91,50.05-17.7,8.53-15.69,3.44-24.15,7.75-33.4,1.19-2.55,2.55-5.58,3.81-8.82,3.14-8.1,5.64-17.54,3.23-24.25-.48-1.34-1.16-2.57-2.07-3.66-.22-.26-.43-.49-.63-.69-2.78-2.68-4.06.62-3.36,2.17,3.7,8.27-3.52,23.9-11.41,28.3-11.48,6.4-37.19-6.13-53.82,19.66,12.26,17.73,4.64,31.9-15.44,39.98-1.58,13.79-13.15,33.54-26.18,43.57-3.72,2.87-15.69,13.94-31.11,28.48-24.08,13.58-52.28,29.44-75.82,42.68-3.32-2.61-6.57-5.24-9.68-7.94-7.55-6.51-14.33-13.44-19.9-20.77-5.58-7.32-9.85-15.07-12.98-22.63-1.55-3.77-2.78-7.52-3.49-11.2-.35-1.84-.57-3.65-.62-5.43-.04-1.77.08-3.5.46-5.13.35-1.63.95-3.14,1.75-4.47.4-.66.85-1.27,1.34-1.83.49-.56,1.02-1.06,1.57-1.51,2.21-1.81,4.71-2.77,6.98-3.3.09-.02.18-.04.27-.06,6.94-.24,13.3,2.93,13.31,8.02.02,6.1-5.18,8.98-8.84,9.24-5.51.39-6.98-3.34-6.35-6.15-8.05,4.19-2.83,12.9,4.1,16.39,20.97,10.55,41.25-26.65,12.39-43.54-11.87-6.94-31.12-7.15-46.54,11.16-15.38,18.28-18.95,53.37,15.49,89.08,5.24,5.44,11.69,11.62,18.28,18.28-10.55,5.93-17.07,9.59-17.07,9.59l19.07-7.54c6.44,6.59,12.92,13.61,18.45,20.84-9.16,8.75-15.66,14.91-17.63,16.65-6.24,5.51-7.21,7.44-4.81,6.15.31-.17.68-.39,1.1-.67,1.27-.83,3.01-2.15,5.11-3.93.77-.65,2.75-2.18,5.72-4.42,25.97-19.58,127.19-93.44,146.15-107.27m-69.22,131.54c.04-2.79-.1-5.59-.45-8.37-.17-1.39-.39-2.77-.67-4.16-.07-.36-.14-.68-.21-1.02l-.11-.52-.12-.51c-.17-.68-.33-1.36-.51-2.03-1.44-5.4-3.6-10.6-6.32-15.44-2.71-4.85-6.01-9.31-9.62-13.42-3.61-4.11-7.52-7.89-11.58-11.41-.35-.3-.71-.6-1.06-.91-.86.63-1.7,1.25-2.55,1.87,4.57,3.92,8.98,8.06,13,12.59,3.51,3.98,6.7,8.26,9.32,12.9,2.63,4.63,4.68,9.59,6.12,14.74,2.96,10.26,2.62,21.33.13,31.47-2.48,10.16-7.07,19.51-13.03,26.96-2.98,3.72-6.3,6.98-9.85,9.6-3.55,2.62-7.34,4.6-11.14,5.84-3.81,1.24-7.62,1.75-11.2,1.66-3.59-.1-6.96-.77-9.99-1.78-3.04-1.01-5.75-2.32-8.16-3.72-.74-.43-1.44-.87-2.12-1.31,9.73,4.86,21.43,5.61,33.91-2.42,37.3-24.02,33.73-70.08,13.01-91.93-3.51-3.71-8.08-7.78-13.28-12.21-.82.61-1.64,1.21-2.45,1.8.57.52,1.13,1.03,1.7,1.55.1.09.21.19.31.28,2.9,2.73,5.74,5.56,8.42,8.55.89,1,1.77,2.01,2.63,3.05,3.42,4.13,6.53,8.59,8.99,13.44,1.23,2.42,2.3,4.94,3.15,7.53.86,2.59,1.5,5.26,1.94,7.95.85,5.46.66,10.97-.2,16.27-1.76,10.6-6.24,20.36-12.32,28.03-3.05,3.83-6.52,7.14-10.29,9.67-.94.64-1.9,1.22-2.87,1.76-1.21.67-2.45,1.26-3.69,1.77-1.74.72-3.5,1.3-5.25,1.7-1.4.32-2.8.54-4.17.67-2.56.24-5.05.16-7.4-.17-2.63-.38-5.08-1.05-7.36-1.89-.08-.03-.16-.06-.24-.09-.78-.29-1.54-.61-2.27-.94-.98-.44-1.91-.91-2.82-1.4-.65-.35-1.28-.7-1.89-1.06-1.1-.65-2.15-1.33-3.12-2.01-.76-.53-1.48-1.07-2.17-1.61-1.39-1.07-2.66-2.14-3.81-3.17-3.01-2.71-5.24-5.16-6.84-6.99-.23-.26-.44-.51-.65-.75-.81-.95-1.41-1.69-1.82-2.19-.4-.5-.61-.76-.61-.76,0,0,0,0,0,0,0,0,0,0,0,0,0,0,.22.25.64.73.06.07.14.16.22.25.34.38.78.87,1.32,1.45.12.13.24.26.37.4,1.69,1.81,4.23,4.42,7.75,7.37,1.44,1.2,3.06,2.45,4.86,3.68.4.27.8.55,1.22.82,2.31,1.48,4.9,2.94,7.81,4.13.36.15.73.3,1.11.44,2.61.99,5.47,1.75,8.53,2.09,1.31.15,2.66.22,4.03.19,2.28-.04,4.64-.33,7-.94,3.31-.84,6.62-2.3,9.76-4.32.45-.29.89-.59,1.33-.9,3.52-2.49,6.79-5.67,9.65-9.38,2.85-3.7,5.31-7.92,7.25-12.47,1.93-4.55,3.39-9.43,4.18-14.47.1-.63.18-1.26.26-1.9.53-4.44.53-9-.2-13.4-.87-5.08-2.57-10-4.92-14.61-2.36-4.61-5.35-8.88-8.69-12.88-3.34-4-7.01-7.74-10.84-11.31-.84-.78-1.68-1.56-2.53-2.33-.49.36-.96.71-1.45,1.07-.97.71-1.95,1.43-2.9,2.13,3.49,3.36,6.86,6.86,9.97,10.6,1.04,1.25,2.04,2.52,3.02,3.82,2.97,4,5.6,8.28,7.65,12.84,2.04,4.56,3.46,9.43,4.18,14.3.45,3.1.62,6.19.52,9.24-.06,1.83-.21,3.66-.45,5.46-.33,2.4-.81,4.76-1.47,7.04-.66,2.28-1.47,4.49-2.43,6.6-1.67,3.69-3.78,7.09-6.24,10.02-.35.42-.71.83-1.07,1.23-.36.4-.73.79-1.11,1.17-2.64,2.66-5.59,4.81-8.65,6.36-3.06,1.57-6.22,2.53-9.27,3.01-.44.07-.87.12-1.3.17-.43.05-.86.08-1.29.11-2.98.19-5.82-.07-8.42-.6-2.23-.46-4.3-1.09-6.19-1.83-.63-.25-1.24-.5-1.84-.77-2.37-1.07-4.46-2.24-6.27-3.41-3.17-2.04-5.55-4-7.24-5.49-.24-.21-.47-.42-.69-.61-.87-.76-1.5-1.39-1.93-1.8-.43-.41-.66-.63-.66-.63,0,0,0,0,0,0,0,0,0,0,0,0,0,0,.23.2.69.59.14.12.3.26.47.41.31.27.69.59,1.13.94.14.11.27.22.42.34,1.79,1.44,4.48,3.49,8.16,5.65,1.84,1.07,3.95,2.13,6.32,3.08,2.36.96,5.01,1.75,7.91,2.24,1.81.3,3.72.46,5.7.42,1.19-.02,2.4-.11,3.63-.27.82-.11,1.64-.26,2.47-.46,2.07-.48,4.17-1.2,6.21-2.19.41-.2.82-.41,1.22-.63,3.24-1.77,6.32-4.24,9.01-7.3,1.48-1.68,2.83-3.55,4.04-5.56.98-1.63,1.87-3.35,2.65-5.15,1.73-4.01,2.92-8.39,3.48-12.93.19-1.48.3-2.98.35-4.49.1-3.11-.08-6.26-.56-9.35-.46-2.92-1.17-5.78-2.12-8.57-.57-1.68-1.22-3.33-1.95-4.96-1.96-4.33-4.49-8.42-7.38-12.28-1.55-2.06-3.21-4.06-4.93-6-1.5-1.68-3.04-3.33-4.63-4.94-1.2-1.2-2.42-2.39-3.65-3.57-.8.59-1.58,1.17-2.37,1.74-.39.29-.8.59-1.18.87.86.86,1.69,1.73,2.53,2.62.42.44.83.88,1.24,1.33,1.03,1.13,2.02,2.28,2.99,3.45,1.95,2.34,3.79,4.77,5.46,7.31,1.18,1.81,2.27,3.68,3.27,5.59.05.1.11.2.17.3.04.09.08.18.13.26.99,1.94,1.87,3.93,2.62,5.96.29.77.56,1.55.81,2.33.44,1.36.83,2.74,1.16,4.13l.2.81.17.82c.04.22.09.44.13.66.07.33.14.65.19,1,.09.54.19,1.06.27,1.61.07.55.16,1.11.23,1.66.12,1.02.22,2.04.29,3.05.23,3.37.14,6.72-.3,9.99-.57,4.25-1.79,8.34-3.61,11.99-.15.3-.31.6-.47.9-.8,1.49-1.69,2.9-2.67,4.2-.43.56-.87,1.1-1.33,1.62-.81.93-1.66,1.8-2.55,2.6-2.5,2.24-5.28,3.88-8.06,4.99-.31.12-.62.25-.93.36-1.64.59-3.28,1-4.88,1.26-1.41.23-2.79.36-4.13.38-2.85.04-5.48-.31-7.84-.85-1.77-.41-3.39-.93-4.87-1.5-.49-.19-.97-.38-1.42-.58-1.07-.46-2.04-.94-2.94-1.41-1.7-.89-3.1-1.76-4.22-2.51-.32-.21-.62-.42-.89-.61-.87-.62-1.53-1.11-1.96-1.45-.44-.34-.66-.51-.66-.51,0,0,.01,0,.04.03.09.06.31.21.65.44.45.31,1.14.75,2.04,1.31.46.27.97.56,1.53.89.57.31,1.19.66,1.88.99,1.37.7,2.96,1.44,4.81,2.11,1.54.56,3.25,1.07,5.12,1.48.37.08.74.16,1.13.24.42.08.86.14,1.3.2,1.97.28,4.07.41,6.3.28,1.11-.07,2.24-.21,3.39-.42,1.68-.31,3.39-.77,5.09-1.45.48-.19.95-.4,1.43-.63,1.48-.7,2.95-1.56,4.35-2.59.84-.62,1.66-1.29,2.44-2.04.78-.74,1.53-1.54,2.24-2.39.43-.51.85-1.04,1.24-1.58.86-1.2,1.64-2.5,2.34-3.86.15-.3.31-.61.46-.92.27-.57.52-1.15.75-1.74,1.18-2.95,1.96-6.16,2.37-9.47.31-2.49.39-5.05.27-7.63-.07-1.55-.22-3.11-.43-4.66-.07-.52-.16-1.03-.23-1.54-.04-.26-.09-.52-.14-.79-.05-.27-.1-.54-.15-.8-.09-.5-.22-1.03-.32-1.54l-.17-.78-.2-.77c-.5-2.06-1.16-4.1-1.91-6.1-1.13-3.01-2.55-5.93-4.21-8.75-.55-.94-1.13-1.86-1.73-2.78s-1.23-1.81-1.87-2.7c-1.94-2.66-4.08-5.21-6.33-7.68-1.34-1.45-2.72-2.87-4.14-4.27-3.81,2.81-7.36,5.43-10.59,7.83,10.83,15.54,16.44,31.76,7.39,46.39-19.96,32.24-37.58-1.61-37.58-1.61-5.25,4.72,3.82,26.57,20.08,37.75.16.14.31.27.48.41,1.8,1.51,3.87,3.1,6.26,4.6,2.4,1.5,5.12,2.93,8.21,4.05,3.08,1.11,6.53,1.91,10.25,2.11,3.72.2,7.7-.23,11.7-1.45,4-1.22,7.99-3.2,11.74-5.86,3.76-2.66,7.28-5.97,10.42-9.8,6.29-7.65,11.17-17.25,13.89-27.79,1.34-5.27,2.13-10.78,2.2-16.35m116.72-240.39c-.4.23-.82.41-1.18.68-.38.25-.75.5-1.11.74-.18.12-.36.24-.54.36-.18.13-.34.27-.5.41-.33.27-.65.54-.97.8-.16.13-.32.26-.47.39-.14.14-.29.28-.43.43-.98.92-1.79,1.87-2.48,2.77-.13.16-.25.33-.37.48-.36.54-.7,1.04-1.01,1.5-.28.49-.51.95-.73,1.36-.11.2-.21.4-.31.58-.09.18-.15.36-.22.53-.13.33-.25.61-.34.84-.18.46-.27.7-.27.7,0,0,.01-.02.03-.05.05-.08.17-.29.36-.6.09-.15.2-.33.32-.53.05-.08.09-.16.14-.24.09-.15.18-.32.3-.49.12-.16.24-.34.37-.52.26-.36.54-.77.87-1.2.36-.41.73-.85,1.13-1.32.84-.9,1.83-1.88,3-2.81,1.16-.94,2.51-1.81,3.98-2.63.36-.23.76-.37,1.14-.56.39-.18.78-.36,1.18-.54.37-.15.84-.33,1.25-.48.41-.14.82-.29,1.26-.41,1.72-.53,3.54-.82,5.38-.95,1.84-.1,3.71.03,5.51.45,1.8.4,3.52,1.08,5.06,2.01.77.47,1.49,1,2.15,1.58.66.58,1.26,1.23,1.79,1.92.54.68.98,1.42,1.37,2.17.2.37.36.76.53,1.14.13.35.32.83.42,1.19.11.38.23.76.3,1.16.1.39.15.79.21,1.17.07.39.09.78.13,1.16.01.38.04.76.04,1.13-.01,1.49-.2,2.87-.47,4.08-.27,1.21-.62,2.25-.95,3.09-.16.42-.32.8-.47,1.12-.14.32-.27.6-.38.81-.22.44-.33.67-.33.67,0,0,.15-.21.44-.61.15-.2.31-.45.5-.75.1-.15.2-.31.31-.49.1-.18.21-.37.32-.57.45-.81.96-1.82,1.37-3.06.42-1.23.79-2.68.93-4.3.15-1.62.07-3.38-.38-5.22-.05-.24-.11-.45-.17-.66l-.09-.32-.05-.16-.02-.08v-.02s-.02-.05-.02-.05l-.02-.04c-.16-.44-.32-.9-.52-1.34-.38-.89-.87-1.75-1.45-2.55-1.14-1.62-2.62-3.07-4.35-4.16-1.72-1.11-3.66-1.88-5.66-2.33-2.01-.44-4.08-.56-6.1-.41-2.03.15-4,.6-5.84,1.24-.46.15-.92.34-1.37.52-.46.18-.83.36-1.29.58-.42.23-.83.45-1.23.67m-81.89,114.12l10.65,1.85c-.18.55-.45,1.08-.79,1.58-.04.06-.08.12-.13.18-.23.31-.49.59-.76.84,0,0-.02.02-.03.03-.05.05-.11.09-.17.14-1.98,1.66-4.79,1.82-6.78.2-.96-.78-1.57-1.85-1.85-3.01-.14-.58-.19-1.19-.15-1.79h0Zm.48-1.99c.04-.1.09-.2.14-.3.17-.35.36-.69.6-1,.6-.8,1.35-1.4,2.17-1.8,1.81-.86,3.95-.71,5.57.6,1.44,1.17,2.12,2.98,2,4.8l-10.65-1.84c.05-.15.11-.31.17-.46m.58,8.05c.37.3.77.56,1.18.76,2.87,1.44,6.51.56,8.64-2.28.46-.61.81-1.27,1.07-1.95,1.11-2.95.37-6.37-2.06-8.33-.75-.61-1.6-1.02-2.48-1.24-2.6-.66-5.52.33-7.34,2.76-2.44,3.25-1.99,7.86.98,10.28"/>
        </g>
      </g>
    </g>
  </g>
</svg>